ffmpeg started on 2016-11-26 at 09:44:35
Report written to "Output/NVENCh264/results/ffmpeg/old_town_cross_2160p50ll2000k.log"
Command line:
Tools/ffmpeg/ffmpeg -benchmark -y -i Input/y4m/old_town_cross_2160p50.y4m -c:v h264_nvenc -preset ll -b:v 2000k -an Output/NVENCh264/encoded/old_town_cross_2160p50ll2000k.mkv
ffmpeg version N-82227-gdb23fde Copyright (c) 2000-2016 the FFmpeg developers
  built with gcc 5.4.0 (Ubuntu 5.4.0-6ubuntu1~16.04.2) 20160609
  configuration: --prefix=/home/jaroslav/ffmpeg_build --pkg-config-flags=--static --extra-cflags=-I/home/jaroslav/ffmpeg_build/include --extra-ldflags=-L/home/jaroslav/ffmpeg_build/lib --bindir=/home/jaroslav/bin --enable-gpl --enable-libass --enable-libfdk-aac --enable-libfreetype --enable-libmp3lame --enable-libopus --enable-libtheora --enable-libvorbis --enable-libvpx --enable-libx264 --enable-libx265 --enable-nvenc --enable-libmfx --enable-libxvid --enable-libgsm --enable-libopencore-amrnb --enable-version3 --enable-nonfree
  libavutil      55. 35.100 / 55. 35.100
  libavcodec     57. 66.101 / 57. 66.101
  libavformat    57. 57.100 / 57. 57.100
  libavdevice    57.  2.100 / 57.  2.100
  libavfilter     6. 66.100 /  6. 66.100
  libswscale      4.  3.100 /  4.  3.100
  libswresample   2.  4.100 /  2.  4.100
  libpostproc    54.  2.100 / 54.  2.100
Input #0, yuv4mpegpipe, from 'Input/y4m/old_town_cross_2160p50.y4m':
  Duration: 00:00:10.00, start: 0.000000, bitrate: 4976642 kb/s
    Stream #0:0: Video: rawvideo (I420 / 0x30323449), yuv420p(progressive), 3840x2160, SAR 1:1 DAR 16:9, 50 fps, 50 tbr, 50 tbn, 50 tbc
[h264_nvenc @ 0x32de120] The variable bitrate rate-control requires the 'qmin' and/or 'qmax' option set.
Output #0, matroska, to 'Output/NVENCh264/encoded/old_town_cross_2160p50ll2000k.mkv':
  Metadata:
    encoder         : Lavf57.57.100
    Stream #0:0: Video: h264 (h264_nvenc) (Main) (H264 / 0x34363248), yuv420p, 3840x2160 [SAR 1:1 DAR 16:9], q=-1--1, 2000 kb/s, 50 fps, 1k tbn, 50 tbc
    Metadata:
      encoder         : Lavc57.66.101 h264_nvenc
    Side data:
      cpb: bitrate max/min/avg: 0/0/2000000 buffer size: 4000000 vbv_delay: -1
Stream mapping:
  Stream #0:0 -> #0:0 (rawvideo (native) -> h264 (h264_nvenc))
Press [q] to stop, [?] for help
frame=   20 fps=0.0 q=0.0 size=       0kB time=00:00:00.00 bitrate=N/A speed=   0x    frame=   25 fps= 24 q=0.0 size=       0kB time=00:00:00.00 bitrate=N/A speed=   0x    frame=   40 fps= 22 q=47.0 size=       1kB time=00:00:00.18 bitrate=  32.9kbits/s speed= 0.1x    frame=   54 fps= 23 q=49.0 size=       1kB time=00:00:00.46 bitrate=  12.9kbits/s speed=0.192x    frame=   60 fps= 20 q=49.0 size=       1kB time=00:00:00.58 bitrate=  10.3kbits/s speed=0.19x    frame=   64 fps= 16 q=49.0 size=       1kB time=00:00:00.66 bitrate=   9.0kbits/s speed=0.17x    frame=   78 fps= 17 q=49.0 size=       1kB time=00:00:00.94 bitrate=   6.3kbits/s speed=0.203x    frame=   96 fps= 19 q=49.0 size=       1kB time=00:00:01.30 bitrate=   4.6kbits/s speed=0.252x    frame=  114 fps= 20 q=49.0 size=       1kB time=00:00:01.66 bitrate=   3.6kbits/s speed=0.293x    frame=  132 fps= 21 q=49.0 size=       1kB time=00:00:02.02 bitrate=   2.9kbits/s speed=0.327x    frame=  150 fps= 22 q=49.0 size=       1kB time=00:00:02.38 bitrate=   2.5kbits/s speed=0.355x    frame=  168 fps= 23 q=49.0 size=       1kB time=00:00:02.74 bitrate=   2.2kbits/s speed=0.38x    frame=  186 fps= 24 q=49.0 size=       1kB time=00:00:03.10 bitrate=   1.9kbits/s speed=0.401x    frame=  204 fps= 25 q=49.0 size=       1kB time=00:00:03.46 bitrate=   1.7kbits/s speed=0.42x    frame=  211 fps= 24 q=49.0 size=       1kB time=00:00:03.60 bitrate=   1.7kbits/s speed=0.411x    frame=  220 fps= 24 q=49.0 size=       1kB time=00:00:03.78 bitrate=   1.6kbits/s speed=0.404x    frame=  223 fps= 22 q=49.0 size=       1kB time=00:00:03.84 bitrate=   1.6kbits/s speed=0.38x    frame=  225 fps= 21 q=49.0 size=       1kB time=00:00:03.88 bitrate=   1.5kbits/s speed=0.356x    frame=  234 fps= 20 q=49.0 size=       1kB time=00:00:04.06 bitrate=   1.5kbits/s speed=0.353x    frame=  252 fps= 21 q=48.0 size=       1kB time=00:00:04.42 bitrate=   1.3kbits/s speed=0.367x    frame=  258 fps= 21 q=48.0 size=       1kB time=00:00:04.54 bitrate=   1.3kbits/s speed=0.362x    frame=  271 fps= 20 q=49.0 size=       1kB time=00:00:04.80 bitrate=   1.2kbits/s speed=0.36x    frame=  277 fps= 20 q=49.0 size=       1kB time=00:00:04.92 bitrate=   1.2kbits/s speed=0.347x    frame=  282 fps= 19 q=48.0 size=    1182kB time=00:00:05.02 bitrate=1928.1kbits/s speed=0.334x    frame=  290 fps= 19 q=49.0 size=    1182kB time=00:00:05.18 bitrate=1868.5kbits/s speed=0.332x    frame=  291 fps= 18 q=49.0 size=    1182kB time=00:00:05.20 bitrate=1861.3kbits/s speed=0.321x    frame=  295 fps= 17 q=49.0 size=    1182kB time=00:00:05.28 bitrate=1833.1kbits/s speed=0.309x    frame=  297 fps= 17 q=49.0 size=    1182kB time=00:00:05.32 bitrate=1819.4kbits/s speed=0.301x    frame=  299 fps= 16 q=49.0 size=    1182kB time=00:00:05.36 bitrate=1805.8kbits/s speed=0.293x    frame=  301 fps= 16 q=49.0 size=    1182kB time=00:00:05.40 bitrate=1792.4kbits/s speed=0.284x    frame=  306 fps= 15 q=49.0 size=    1182kB time=00:00:05.50 bitrate=1759.8kbits/s speed=0.277x    frame=  308 fps= 15 q=49.0 size=    1182kB time=00:00:05.54 bitrate=1747.1kbits/s speed=0.266x    frame=  313 fps= 14 q=49.0 size=    1182kB time=00:00:05.64 bitrate=1716.1kbits/s speed=0.257x    frame=  316 fps= 14 q=49.0 size=    1182kB time=00:00:05.70 bitrate=1698.1kbits/s speed=0.247x    frame=  318 fps= 13 q=49.0 size=    1182kB time=00:00:05.74 bitrate=1686.3kbits/s speed=0.239x    frame=  319 fps= 13 q=49.0 size=    1182kB time=00:00:05.76 bitrate=1680.4kbits/s speed=0.234x    frame=  329 fps= 13 q=49.0 size=    1182kB time=00:00:05.96 bitrate=1624.0kbits/s speed=0.236x    frame=  332 fps= 13 q=49.0 size=    1182kB time=00:00:06.02 bitrate=1607.8kbits/s speed=0.23x    frame=  334 fps= 12 q=49.0 size=    1182kB time=00:00:06.06 bitrate=1597.2kbits/s speed=0.226x    frame=  340 fps= 12 q=49.0 size=    1182kB time=00:00:06.18 bitrate=1566.2kbits/s speed=0.226x    frame=  347 fps= 12 q=49.0 size=    1182kB time=00:00:06.32 bitrate=1531.5kbits/s speed=0.227x    frame=  351 fps= 12 q=49.0 size=    1182kB time=00:00:06.40 bitrate=1512.4kbits/s speed=0.223x    frame=  353 fps= 12 q=49.0 size=    1182kB time=00:00:06.44 bitrate=1503.0kbits/s speed=0.219x    frame=  371 fps= 12 q=49.0 size=    1182kB time=00:00:06.80 bitrate=1423.4kbits/s speed=0.227x    frame=  389 fps= 13 q=49.0 size=    1182kB time=00:00:07.16 bitrate=1351.9kbits/s speed=0.235x    frame=  396 fps= 13 q=49.0 size=    1182kB time=00:00:07.30 bitrate=1326.0kbits/s speed=0.236x    frame=  414 fps= 13 q=49.0 size=    1182kB time=00:00:07.66 bitrate=1263.6kbits/s speed=0.243x    frame=  432 fps= 13 q=49.0 size=    1182kB time=00:00:08.02 bitrate=1206.9kbits/s speed=0.251x    frame=  450 fps= 14 q=49.0 size=    1182kB time=00:00:08.38 bitrate=1155.1kbits/s speed=0.258x    frame=  468 fps= 14 q=49.0 size=    1182kB time=00:00:08.74 bitrate=1107.5kbits/s speed=0.265x    frame=  486 fps= 14 q=49.0 size=    1182kB time=00:00:09.10 bitrate=1063.7kbits/s speed=0.271x    frame=  494 fps= 14 q=49.0 size=    1182kB time=00:00:09.26 bitrate=1045.3kbits/s speed=0.271x    frame=  500 fps= 15 q=49.0 Lsize=    2668kB time=00:00:09.98 bitrate=2189.5kbits/s speed=0.29x    
video:2663kB audio:0kB subtitle:0kB other streams:0kB global headers:0kB muxing overhead: 0.158838%
bench: utime=1.252s
bench: maxrss=1396828kB
